<svg width="164" height="56" viewBox="0 0 164 56" fill="none" xmlns="http://www.w3.org/2000/svg">
<path d="M34.6307 12.175C34.1274 11.0965 34.0316 10.042 34.4869 9.01143C34.7745 8.34037 35.2538 7.81312 35.9009 7.45362C37.1232 6.73464 38.7289 6.87844 39.8074 7.78915C41.0776 8.86763 41.3173 10.2337 40.5504 12.3188C40.9578 12.4146 41.3412 12.4865 41.7487 12.5584C48.5551 14.0683 53.7078 19.3888 54.8821 26.2191C55.4813 29.6703 55.0259 33.0016 53.564 36.1891C53.3723 36.5965 53.1566 36.7882 52.6773 36.7643C50.5443 36.7403 48.4352 36.7403 46.3022 36.7403C46.1345 36.7403 45.9907 36.7403 45.7031 36.7403C48.2195 34.104 49.322 31.0603 48.8427 27.5613C48.4592 24.7812 47.1411 22.5044 44.9601 20.7309C40.7421 17.3037 34.8224 17.5434 30.7482 21.354C27.0814 24.7572 25.7153 31.6595 30.6284 36.7403C30.4366 36.7403 30.2689 36.7643 30.1251 36.7643C21.8328 36.7643 13.5644 36.7643 5.27214 36.7643C3.71434 36.7643 2.51603 35.9734 2.08464 34.6313C1.43755 32.6181 2.94742 30.581 5.12834 30.581C9.84968 30.581 14.5471 30.581 19.2684 30.581C19.58 30.581 19.9155 30.581 20.2031 30.4851C20.8981 30.2934 21.3535 29.5744 21.2576 28.8794C21.1617 28.1604 20.5865 27.6092 19.8436 27.5613C19.5081 27.5373 19.1725 27.5613 18.837 27.5613C14.2595 27.5613 9.68192 27.5613 5.10438 27.5613C3.37881 27.5613 2.01274 26.339 1.94084 24.7093C1.84498 22.9597 3.01932 21.6176 4.76885 21.4259C5.08041 21.4019 5.39197 21.378 5.70353 21.378C11.1678 21.378 16.6321 21.378 22.0724 21.378C23.2468 21.378 23.9897 20.3954 23.6063 19.3408C23.3666 18.7177 22.8154 18.3343 22.0485 18.3343C20.5146 18.3343 18.9568 18.3343 17.423 18.3343C15.7933 18.3343 14.4752 17.2318 14.2834 15.722C14.0917 14.0443 15.0743 12.6543 16.728 12.2708C16.9916 12.1989 17.2792 12.1989 17.5668 12.1989C23.0071 12.1989 28.4474 12.1989 33.8878 12.1989C34.1274 12.175 34.3192 12.175 34.6307 12.175Z" fill="#FF5634"/>
<path d="M51.2377 39.8091C50.8303 40.2645 50.5188 40.624 50.1832 40.9595C46.804 44.2908 42.7298 45.9684 37.9605 45.9684C31.1781 45.9684 24.3956 45.9684 17.5892 45.9684C15.8637 45.9684 14.7133 45.1296 14.3298 43.6197C13.8505 41.7504 15.2166 39.905 17.1339 39.8091C17.3496 39.8091 17.5653 39.7852 17.781 39.7852C28.6856 39.7852 39.5902 39.7852 50.4948 39.7852C50.7105 39.8091 50.9022 39.8091 51.2377 39.8091Z" fill="#FF5634"/>
<path d="M73.504 36.288C71.824 36.288 70.352 35.92 69.088 35.184C67.84 34.448 66.856 33.432 66.136 32.136C65.432 30.824 65.08 29.312 65.08 27.6C65.08 25.888 65.432 24.384 66.136 23.088C66.856 21.776 67.84 20.752 69.088 20.016C70.352 19.28 71.824 18.912 73.504 18.912C75.168 18.912 76.632 19.28 77.896 20.016C79.16 20.752 80.144 21.776 80.848 23.088C81.552 24.384 81.904 25.888 81.904 27.6C81.904 29.312 81.552 30.824 80.848 32.136C80.144 33.432 79.16 34.448 77.896 35.184C76.632 35.92 75.168 36.288 73.504 36.288ZM73.504 33.528C75.104 33.528 76.376 33 77.32 31.944C78.28 30.888 78.76 29.44 78.76 27.6C78.76 25.76 78.28 24.312 77.32 23.256C76.376 22.2 75.104 21.672 73.504 21.672C71.904 21.672 70.624 22.2 69.664 23.256C68.704 24.312 68.224 25.76 68.224 27.6C68.224 29.44 68.704 30.888 69.664 31.944C70.624 33 71.904 33.528 73.504 33.528ZM84.0644 36V24.096H86.8004L87.0884 26.328C87.5204 25.56 88.1044 24.952 88.8404 24.504C89.5924 24.04 90.4724 23.808 91.4804 23.808V27.048H90.6164C89.9444 27.048 89.3444 27.152 88.8164 27.36C88.2884 27.568 87.8724 27.928 87.5684 28.44C87.2804 28.952 87.1364 29.664 87.1364 30.576V36H84.0644ZM98.3611 36.288C97.2411 36.288 96.2411 36.016 95.3611 35.472C94.4811 34.928 93.7851 34.184 93.2731 33.24C92.7611 32.296 92.5051 31.224 92.5051 30.024C92.5051 28.824 92.7611 27.76 93.2731 26.832C93.7851 25.888 94.4811 25.152 95.3611 24.624C96.2411 24.08 97.2411 23.808 98.3611 23.808C99.2571 23.808 100.041 23.976 100.713 24.312C101.385 24.648 101.929 25.12 102.345 25.728V18.72H105.417V36H102.681L102.345 34.296C101.961 34.824 101.449 35.288 100.809 35.688C100.185 36.088 99.3691 36.288 98.3611 36.288ZM99.0091 33.6C100.001 33.6 100.809 33.272 101.433 32.616C102.073 31.944 102.393 31.088 102.393 30.048C102.393 29.008 102.073 28.16 101.433 27.504C100.809 26.832 100.001 26.496 99.0091 26.496C98.0331 26.496 97.2251 26.824 96.5851 27.48C95.9451 28.136 95.6251 28.984 95.6251 30.024C95.6251 31.064 95.9451 31.92 96.5851 32.592C97.2251 33.264 98.0331 33.6 99.0091 33.6ZM113.849 36.288C112.649 36.288 111.585 36.032 110.657 35.52C109.729 35.008 109.001 34.288 108.473 33.36C107.945 32.432 107.681 31.36 107.681 30.144C107.681 28.912 107.937 27.816 108.449 26.856C108.977 25.896 109.697 25.152 110.609 24.624C111.537 24.08 112.625 23.808 113.873 23.808C115.041 23.808 116.073 24.064 116.969 24.576C117.865 25.088 118.561 25.792 119.057 26.688C119.569 27.568 119.825 28.552 119.825 29.64C119.825 29.816 119.817 30 119.801 30.192C119.801 30.384 119.793 30.584 119.777 30.792H110.729C110.793 31.72 111.113 32.448 111.689 32.976C112.281 33.504 112.993 33.768 113.825 33.768C114.449 33.768 114.969 33.632 115.385 33.36C115.817 33.072 116.137 32.704 116.345 32.256H119.465C119.241 33.008 118.865 33.696 118.337 34.32C117.825 34.928 117.185 35.408 116.417 35.76C115.665 36.112 114.809 36.288 113.849 36.288ZM113.873 26.304C113.121 26.304 112.457 26.52 111.881 26.952C111.305 27.368 110.937 28.008 110.777 28.872H116.705C116.657 28.088 116.369 27.464 115.841 27C115.313 26.536 114.657 26.304 113.873 26.304ZM121.929 36V24.096H124.665L124.953 26.328C125.385 25.56 125.969 24.952 126.705 24.504C127.457 24.04 128.337 23.808 129.345 23.808V27.048H128.481C127.809 27.048 127.209 27.152 126.681 27.36C126.153 27.568 125.737 27.928 125.433 28.44C125.145 28.952 125.001 29.664 125.001 30.576V36H121.929ZM132.621 22.248C132.061 22.248 131.597 22.08 131.229 21.744C130.877 21.408 130.701 20.984 130.701 20.472C130.701 19.96 130.877 19.544 131.229 19.224C131.597 18.888 132.061 18.72 132.621 18.72C133.181 18.72 133.637 18.888 133.989 19.224C134.357 19.544 134.541 19.96 134.541 20.472C134.541 20.984 134.357 21.408 133.989 21.744C133.637 22.08 133.181 22.248 132.621 22.248ZM131.085 36V24.096H134.157V36H131.085ZM137.435 36V26.664H135.803V24.096H137.435V22.704C137.435 21.264 137.795 20.24 138.515 19.632C139.251 19.024 140.243 18.72 141.491 18.72H142.811V21.336H141.971C141.443 21.336 141.067 21.44 140.843 21.648C140.619 21.856 140.507 22.208 140.507 22.704V24.096H148.187V36H145.115V26.664H140.507V36H137.435ZM146.675 22.392C146.115 22.392 145.651 22.224 145.283 21.888C144.931 21.552 144.755 21.128 144.755 20.616C144.755 20.104 144.931 19.688 145.283 19.368C145.651 19.032 146.115 18.864 146.675 18.864C147.235 18.864 147.691 19.032 148.043 19.368C148.411 19.688 148.595 20.104 148.595 20.616C148.595 21.128 148.411 21.552 148.043 21.888C147.691 22.224 147.235 22.392 146.675 22.392ZM156.79 36.288C155.574 36.288 154.502 36.024 153.574 35.496C152.646 34.968 151.91 34.232 151.366 33.288C150.838 32.344 150.574 31.264 150.574 30.048C150.574 28.832 150.838 27.752 151.366 26.808C151.91 25.864 152.646 25.128 153.574 24.6C154.502 24.072 155.574 23.808 156.79 23.808C158.31 23.808 159.59 24.208 160.63 25.008C161.67 25.792 162.334 26.88 162.622 28.272H159.382C159.222 27.696 158.902 27.248 158.422 26.928C157.958 26.592 157.406 26.424 156.766 26.424C155.918 26.424 155.198 26.744 154.606 27.384C154.014 28.024 153.718 28.912 153.718 30.048C153.718 31.184 154.014 32.072 154.606 32.712C155.198 33.352 155.918 33.672 156.766 33.672C157.406 33.672 157.958 33.512 158.422 33.192C158.902 32.872 159.222 32.416 159.382 31.824H162.622C162.334 33.168 161.67 34.248 160.63 35.064C159.59 35.88 158.31 36.288 156.79 36.288Z" fill="#FF5634"/>
</svg>
